<?xml version="1.0" standalone="no"?>
<!DOCTYPE svg PUBLIC "-//W3C//DTD SVG 20010904//EN"
 "http://www.w3.org/TR/2001/REC-SVG-20010904/DTD/svg10.dtd">
<svg version="1.0" xmlns="http://www.w3.org/2000/svg"
 width="512.000000pt" height="512.000000pt" viewBox="0 0 512.000000 512.000000"
 preserveAspectRatio="xMidYMid meet">

<g transform="translate(0.000000,512.000000) scale(0.100000,-0.100000)"
fill="#000000" stroke="none">
<path d="M4308 4733 c7 -3 16 -2 19 1 4 3 -2 6 -13 5 -11 0 -14 -3 -6 -6z"/>
<path d="M3910 4720 c0 -5 18 -10 40 -10 22 0 40 -4 40 -10 0 -15 -83 -12
-123 5 -44 18 -132 21 -121 3 5 -8 -19 -9 -97 -4 -57 3 -98 3 -92 -2 7 -4 -69
-8 -169 -9 -129 -1 -183 -5 -188 -14 -6 -8 -27 -10 -74 -5 -36 4 -71 4 -77 1
-6 -4 -77 -9 -157 -11 -81 -2 -178 -8 -217 -13 -38 -6 -122 -13 -185 -16 -63
-3 -194 -10 -290 -16 -96 -5 -292 -16 -435 -24 -143 -8 -318 -19 -390 -24 -71
-5 -177 -12 -235 -16 -105 -6 -233 -14 -578 -37 l-184 -11 7 -161 c4 -89 10
-191 14 -228 4 -38 4 -68 -1 -68 -4 0 -8 -10 -7 -22 0 -22 1 -22 9 -3 6 15 9
7 9 -30 0 -27 4 -106 10 -174 5 -69 8 -128 6 -131 -4 -7 10 -152 20 -205 4
-16 6 -52 5 -80 0 -27 4 -84 10 -125 15 -102 32 -380 31 -520 -1 -78 2 -110 9
-100 10 16 15 -26 11 -106 -2 -22 5 -69 14 -105 12 -44 15 -84 11 -127 -3 -34
-2 -61 2 -58 9 5 10 -26 12 -221 0 -79 4 -143 8 -143 4 0 6 -23 5 -50 -2 -28
2 -60 8 -72 6 -11 13 -82 16 -157 2 -75 9 -157 14 -182 6 -25 9 -50 8 -55 -2
-5 0 -63 5 -129 4 -66 11 -192 16 -280 32 -563 33 -565 50 -565 9 0 41 7 72
15 31 8 105 15 165 16 59 1 133 6 163 10 67 9 391 28 550 31 63 1 120 6 127
11 6 4 62 10 124 13 61 3 115 6 118 9 4 2 56 6 116 10 60 4 112 10 115 15 3 4
41 6 85 5 44 -2 73 -1 65 2 -47 15 -45 13 -30 23 8 5 25 7 36 4 12 -3 25 -1
29 6 5 8 -23 9 -102 6 -107 -5 -107 -5 -28 4 149 18 339 27 372 18 23 -6 39
-5 55 5 16 10 88 18 233 26 116 7 264 16 330 22 66 5 134 9 150 8 17 0 75 3
130 8 55 5 101 9 103 7 2 -1 6 -45 9 -98 5 -79 9 -96 22 -96 14 0 14 -2 1 -10
-8 -5 -10 -10 -4 -10 6 0 18 8 25 17 12 14 12 16 0 8 -11 -6 -13 -2 -9 26 3
19 2 52 -2 74 -7 38 -8 36 -10 -25 -3 -64 -3 -64 -11 29 -5 56 -14 98 -21 104
-9 6 -6 7 10 4 12 -3 22 -1 22 4 0 12 -77 12 -85 0 -3 -5 3 -12 12 -14 18 -5
-86 -10 -262 -13 -55 -1 -145 -6 -200 -12 -132 -14 -432 -26 -424 -18 4 4 28
7 53 8 32 0 44 4 37 11 -6 6 -32 7 -67 2 -33 -4 -52 -10 -45 -14 15 -9 -69
-21 -151 -21 -31 0 -67 -4 -80 -9 -13 -5 -61 -5 -108 -1 -87 7 -74 13 40 15
126 3 124 9 -5 15 -71 3 -141 2 -155 -3 -14 -5 -78 -11 -144 -13 -65 -3 -122
-7 -126 -9 -5 -3 -69 -6 -144 -6 -75 -1 -136 -5 -136 -8 0 -4 17 -5 38 -3 28
2 33 1 22 -7 -8 -6 -33 -11 -55 -11 -29 0 -36 3 -25 10 11 7 6 10 -22 10 -24
0 -40 -6 -46 -16 -8 -15 -17 -15 -81 -4 -68 13 -101 8 -72 -9 8 -5 -23 -12
-78 -16 -51 -4 -95 -4 -98 -1 -4 3 11 6 33 7 21 1 50 4 64 8 23 7 21 8 -15 14
-22 4 -51 9 -65 12 -16 4 -13 0 10 -10 34 -15 33 -15 -55 -13 -135 2 -155 0
-149 -16 4 -10 -6 -16 -35 -21 -22 -4 -45 -4 -51 0 -5 3 -18 1 -27 -4 -15 -9
-14 -11 12 -12 19 -1 23 -3 12 -6 -29 -7 -87 6 -87 21 0 9 -20 13 -66 14 -69
1 -74 2 -78 24 -1 7 -5 19 -10 26 -4 7 -3 18 2 25 10 12 5 129 -18 457 -5 80
-12 195 -15 255 -4 61 -8 135 -10 165 -2 30 -7 107 -10 170 -16 313 -23 457
-23 475 0 65 -12 306 -15 313 -3 4 -8 79 -11 167 -9 220 -25 500 -32 561 -3
28 -5 76 -5 105 0 30 -6 149 -14 264 -8 116 -17 271 -20 345 -3 74 -8 155 -10
180 -2 25 -7 84 -10 131 l-6 86 53 6 c29 4 85 7 123 7 39 0 120 4 180 9 61 6
162 12 225 15 63 3 185 10 270 15 85 6 281 17 435 26 274 15 829 51 1251 80
414 28 639 52 669 70 11 6 42 13 70 14 27 1 55 7 62 13 7 6 33 7 60 4 32 -4
74 1 123 13 l75 19 -50 1 c-49 2 -49 2 -25 16 14 8 36 14 48 15 29 0 24 22 -7
30 -12 3 -21 9 -19 15 2 5 -21 14 -50 18 -29 5 -50 13 -47 18 4 5 -20 9 -54 9
-34 0 -61 -4 -61 -10z m-107 -37 c-7 -2 -19 -2 -25 0 -7 3 -2 5 12 5 14 0 19
-2 13 -5z m-3096 -3865 c-3 -8 -6 -5 -6 6 -1 11 2 17 5 13 3 -3 4 -12 1 -19z
m0 -80 c-3 -8 -6 -5 -6 6 -1 11 2 17 5 13 3 -3 4 -12 1 -19z m1523 -112 c0 -9
-39 -13 -51 -5 -10 6 -4 9 19 9 17 0 32 -2 32 -4z m-1002 -53 c-10 -2 -26 -2
-35 0 -10 3 -2 5 17 5 19 0 27 -2 18 -5z m600 -10 c-10 -2 -26 -2 -35 0 -10 3
-2 5 17 5 19 0 27 -2 18 -5z m-961 -19 c7 -7 9 -14 6 -18 -4 -3 -1 -6 6 -6 7
0 9 -5 5 -12 -5 -8 6 -9 42 -4 107 14 159 17 144 8 -19 -12 -169 -32 -229 -31
-42 1 -43 2 -16 9 17 4 22 8 13 9 -10 0 -17 6 -15 13 1 6 -9 14 -22 17 -14 4
-26 12 -29 19 -5 16 77 12 95 -4z m438 6 c-4 -6 -45 -9 -98 -8 l-92 2 90 6
c50 3 94 7 98 8 5 1 5 -2 2 -8z m375 0 c0 -5 -2 -10 -4 -10 -3 0 -8 5 -11 10
-3 6 -1 10 4 10 6 0 11 -4 11 -10z m63 3 c-7 -2 -19 -2 -25 0 -7 3 -2 5 12 5
14 0 19 -2 13 -5z m-119 -12 c7 -11 -53 -16 -134 -12 -40 2 -292 -17 -332 -25
-23 -5 -27 -3 -22 10 5 13 23 16 88 17 44 1 95 4 111 8 57 12 282 14 289 2z
m-868 -49 c41 5 43 1 8 -12 -32 -13 -55 2 -53 34 2 19 2 19 6 -2 4 -21 9 -23
39 -20z"/>
<path d="M4100 4726 c0 -3 27 -13 60 -22 33 -9 60 -21 60 -25 0 -12 37 -11 45
1 3 6 -1 10 -11 10 -13 0 -14 3 -5 14 9 11 7 15 -11 20 -27 7 -138 8 -138 2z"/>
<path d="M4358 4723 c7 -3 16 -2 19 1 4 3 -2 6 -13 5 -11 0 -14 -3 -6 -6z"/>
<path d="M4218 4643 c12 -2 32 -2 45 0 12 2 2 4 -23 4 -25 0 -35 -2 -22 -4z"/>
<path d="M4298 4603 c6 -2 18 -2 25 0 6 3 1 5 -13 5 -14 0 -19 -2 -12 -5z"/>
<path d="M4462 4340 c0 -19 2 -27 5 -17 2 9 2 25 0 35 -3 9 -5 1 -5 -18z"/>
<path d="M4471 3844 c0 -11 3 -14 6 -6 3 7 2 16 -1 19 -3 4 -6 -2 -5 -13z"/>
<path d="M3050 3675 c0 -8 7 -15 15 -15 8 0 15 7 15 15 0 8 -7 15 -15 15 -8 0
-15 -7 -15 -15z"/>
<path d="M3121 3649 c-17 -7 -21 -17 -21 -48 0 -44 23 -66 57 -54 15 5 16 4 5
-8 -7 -8 -20 -14 -29 -14 -9 0 -18 -6 -20 -12 -3 -9 7 -13 31 -13 48 0 61 27
49 100 -9 57 -23 67 -72 49z m39 -55 c0 -26 -17 -33 -26 -9 -8 20 3 48 16 40
5 -3 10 -17 10 -31z"/>
<path d="M3210 3612 c0 -26 4 -53 9 -61 15 -23 31 -2 31 40 0 52 24 48 28 -4
5 -56 32 -50 32 7 0 52 -12 64 -62 64 l-38 0 0 -46z"/>
<path d="M2967 3643 c-24 -6 -16 -28 10 -28 12 0 25 -3 29 -7 4 -5 -4 -8 -17
-8 -14 0 -30 -5 -37 -12 -9 -9 -12 -8 -16 3 -2 8 -7 22 -10 32 -4 12 -16 17
-46 17 l-41 0 3 -77 c2 -61 6 -78 18 -78 8 0 14 8 14 18 -1 10 5 17 16 17 10
0 26 7 35 16 12 13 19 14 28 5 6 -6 28 -11 49 -11 l38 0 0 43 c0 23 -4 47 -8
53 -9 14 -42 23 -65 17z m-67 -63 c0 -31 -16 -41 -26 -15 -8 19 2 45 16 45 5
0 10 -13 10 -30z m104 -9 c3 -5 -1 -11 -9 -15 -15 -6 -29 7 -18 18 9 9 21 8
27 -3z"/>
<path d="M3050 3637 c0 -50 14 -107 27 -107 23 0 14 114 -9 118 -11 2 -18 -3
-18 -11z"/>
<path d="M2200 3606 c0 -66 12 -126 26 -126 10 0 14 14 14 46 0 56 23 57 28 1
5 -55 32 -50 32 6 0 48 -13 67 -47 67 -16 0 -23 6 -23 20 0 11 -7 20 -15 20
-10 0 -15 -10 -15 -34z"/>
<path d="M2662 3571 c2 -44 7 -57 21 -59 15 -3 17 2 11 36 -4 26 -2 42 6 47
17 10 30 -13 30 -52 0 -22 5 -33 14 -33 11 0 16 14 18 48 4 59 22 62 26 5 3
-35 7 -43 23 -43 18 0 20 4 13 48 -3 26 -8 50 -11 54 -2 4 -37 7 -79 6 l-75
-1 3 -56z"/>
<path d="M1930 3610 c0 -5 9 -10 21 -10 11 0 17 5 14 10 -3 6 -13 10 -21 10
-8 0 -14 -4 -14 -10z"/>
<path d="M2137 3599 c-7 -26 3 -90 16 -106 13 -17 47 -16 47 1 0 8 -7 16 -15
20 -18 7 -20 37 -2 55 10 11 10 14 0 18 -7 3 -13 11 -13 19 0 22 -27 17 -33
-7z"/>
<path d="M2482 3604 c-45 -31 -18 -108 36 -102 36 4 39 26 5 30 -22 2 -28 8
-28 28 0 15 6 25 15 25 8 0 21 4 29 9 11 7 11 10 0 17 -20 12 -32 11 -57 -7z"/>
<path d="M2567 3613 c-14 -14 -6 -23 21 -24 l27 -1 -27 -11 c-30 -12 -40 -29
-32 -51 8 -20 23 -24 62 -19 30 5 32 8 32 47 0 23 -5 47 -12 54 -13 13 -60 16
-71 5z m48 -73 c-3 -5 -10 -10 -16 -10 -5 0 -9 5 -9 10 0 6 7 10 16 10 8 0 12
-4 9 -10z"/>
<path d="M1777 3551 c6 -59 5 -59 -22 -63 -35 -4 -44 -24 -15 -33 13 -4 31 0
45 9 22 15 25 24 25 81 0 57 -2 65 -19 65 -17 0 -19 -6 -14 -59z"/>
<path d="M2327 3592 c-46 -51 15 -129 72 -93 21 13 3 32 -25 25 -14 -4 -24 -2
-24 5 0 6 14 11 30 11 25 0 30 4 30 25 0 42 -54 59 -83 27z m53 -22 c0 -5 -9
-10 -21 -10 -11 0 -17 5 -14 10 3 6 13 10 21 10 8 0 14 -4 14 -10z"/>
<path d="M1989 3579 c-6 -3 -7 -26 -3 -57 8 -65 31 -71 36 -9 4 51 21 52 28 0
3 -25 10 -38 20 -38 12 0 14 10 12 44 -1 25 -8 51 -14 58 -10 13 -59 14 -79 2z"/>
<path d="M1840 3565 c-7 -9 -13 -29 -13 -45 0 -61 63 -81 92 -29 12 22 12 29
0 55 -16 34 -58 44 -79 19z m48 -49 c3 -20 0 -27 -10 -24 -7 3 -14 17 -16 32
-3 20 0 27 10 24 7 -3 14 -17 16 -32z"/>
<path d="M1934 3564 c3 -9 6 -33 6 -55 0 -28 4 -39 15 -39 12 0 15 13 15 55 0
49 -2 55 -21 55 -15 0 -19 -4 -15 -16z"/>
<path d="M4511 3434 c0 -11 3 -14 6 -6 3 7 2 16 -1 19 -3 4 -6 -2 -5 -13z"/>
<path d="M4521 3384 c0 -11 3 -14 6 -6 3 7 2 16 -1 19 -3 4 -6 -2 -5 -13z"/>
<path d="M4411 3354 c0 -11 3 -14 6 -6 3 7 2 16 -1 19 -3 4 -6 -2 -5 -13z"/>
<path d="M4512 3275 c0 -16 2 -22 5 -12 2 9 2 23 0 30 -3 6 -5 -1 -5 -18z"/>
<path d="M4527 3138 c6 -103 11 -107 12 -10 1 45 -3 82 -8 82 -4 0 -6 -33 -4
-72z"/>
<path d="M4511 3154 c0 -11 3 -14 6 -6 3 7 2 16 -1 19 -3 4 -6 -2 -5 -13z"/>
<path d="M4042 3027 c-29 -68 -52 -135 -52 -150 0 -27 1 -27 70 -27 63 0 70
-2 70 -20 0 -16 7 -20 30 -20 25 0 30 4 30 25 0 16 6 25 15 25 10 0 15 10 15
30 0 20 -5 30 -15 30 -10 0 -15 10 -15 30 0 27 -3 30 -30 30 -27 0 -30 -3 -30
-30 0 -32 -15 -44 -49 -38 -20 3 -18 9 29 117 28 63 50 116 50 118 0 2 -15 3
-33 3 -34 0 -34 -1 -85 -123z"/>
<path d="M3794 3120 c-48 -19 -64 -57 -64 -147 0 -55 5 -96 15 -117 42 -87
178 -89 219 -2 21 45 21 46 -17 46 -24 0 -35 -6 -42 -22 -11 -24 -59 -36 -83
-20 -31 20 -42 153 -16 190 20 29 69 30 86 2 9 -13 24 -20 45 -20 44 0 43 22
-1 66 -29 29 -41 34 -77 33 -24 0 -54 -4 -65 -9z"/>
<path d="M3485 2983 c3 -70 8 -147 11 -171 l5 -43 102 7 c56 3 105 9 109 13 4
3 5 17 1 30 -6 23 -8 23 -80 17 l-73 -6 -1 33 c-1 17 -4 79 -8 137 l-6 105
-33 3 -33 3 6 -128z"/>
<path d="M3270 3058 c-7 -24 -28 -95 -46 -158 -19 -63 -37 -123 -40 -132 -4
-15 1 -18 26 -18 26 0 33 6 46 35 14 34 15 35 74 35 55 0 60 -2 66 -25 5 -21
12 -25 40 -25 19 0 34 3 34 8 0 4 -30 77 -68 162 -61 140 -70 155 -94 158 -24
3 -28 -1 -38 -40z m88 -173 c-8 -8 -73 -8 -72 0 1 6 7 32 15 60 l13 50 24 -53
c13 -30 22 -55 20 -57z"/>
<path d="M3087 3076 c-10 -8 -21 -30 -24 -50 -3 -20 -10 -39 -14 -42 -15 -9
-10 -41 6 -48 11 -4 15 -23 15 -80 0 -93 5 -106 41 -106 l28 0 -6 95 c-6 92
-5 95 15 95 17 0 22 6 22 25 0 18 -5 25 -19 25 -20 0 -31 17 -24 38 3 6 13 12
24 12 14 0 19 7 19 25 0 22 -4 25 -32 25 -18 0 -41 -7 -51 -14z"/>
<path d="M2853 3069 c-17 -5 -43 -23 -57 -40 -23 -27 -26 -39 -26 -110 0 -47
6 -94 14 -114 17 -41 68 -75 112 -75 37 0 93 36 112 70 16 30 11 171 -8 210
-23 50 -86 75 -147 59z m66 -59 c32 0 44 -169 14 -202 -22 -25 -59 -23 -77 5
-8 12 -18 48 -21 80 -11 84 16 134 63 121 8 -2 17 -4 21 -4z"/>
<path d="M1867 3013 l-49 -4 7 -142 c3 -78 9 -155 12 -170 5 -28 6 -28 61 -22
108 11 120 15 146 46 23 28 26 39 26 116 0 57 -5 96 -16 118 -18 38 -67 66
-111 63 -15 -1 -50 -3 -76 -5z m112 -70 c16 -14 22 -34 27 -89 6 -64 4 -74
-15 -93 -13 -13 -34 -21 -55 -21 -33 0 -33 1 -40 53 -10 86 -7 155 7 160 25
11 55 6 76 -10z"/>
<path d="M1617 2989 c-37 -22 -49 -66 -42 -158 8 -105 19 -138 56 -156 42 -22
83 -18 117 10 39 33 43 52 33 170 -8 90 -11 101 -35 122 -29 25 -96 31 -129
12z m87 -62 c16 -23 25 -175 12 -196 -11 -17 -54 -13 -65 7 -16 29 -17 178 -2
196 19 22 38 20 55 -7z"/>
<path d="M4425 2990 c3 -5 8 -10 11 -10 2 0 4 5 4 10 0 6 -5 10 -11 10 -5 0
-7 -4 -4 -10z"/>
<path d="M1368 2983 c-31 -5 -32 -10 -21 -125 6 -66 7 -68 33 -68 16 0 30 7
34 15 8 22 53 19 66 -4 29 -55 -4 -116 -50 -91 -11 6 -20 15 -20 20 0 6 -13
10 -30 10 -38 0 -41 -30 -5 -65 19 -20 34 -25 74 -25 43 0 53 4 75 31 20 23
26 42 26 77 0 87 -56 138 -123 113 -26 -10 -27 -9 -27 24 l0 35 65 0 65 0 0
30 0 30 -67 -1 c-38 -1 -80 -4 -95 -6z"/>
<path d="M1205 2973 c-35 -8 -85 -64 -85 -95 0 -35 7 -35 41 -2 l27 26 7 -119
c8 -152 10 -156 43 -148 15 4 28 8 29 9 8 8 -24 330 -32 331 -6 2 -19 0 -30
-2z"/>
<path d="M976 2925 c-6 -40 -10 -45 -33 -45 -24 0 -25 2 -19 40 l6 40 -34 0
c-33 0 -35 -2 -42 -45 -5 -35 -10 -45 -25 -45 -14 0 -19 -7 -19 -30 0 -23 5
-30 19 -30 14 0 17 -6 13 -25 -3 -16 -11 -25 -23 -25 -14 0 -19 -7 -19 -30 0
-20 5 -30 15 -30 11 0 15 -12 15 -46 0 -45 0 -45 33 -42 30 3 32 6 37 48 4 37
9 46 28 48 20 3 22 -1 22 -42 0 -44 1 -46 29 -46 30 0 41 18 41 67 0 13 8 24
20 28 14 4 20 15 20 35 0 22 -4 28 -15 24 -11 -5 -15 1 -15 20 0 19 5 26 20
26 16 0 20 7 20 36 0 29 -3 35 -16 30 -15 -6 -16 0 -11 39 l7 45 -34 0 c-32 0
-34 -2 -40 -45z m-16 -130 c0 -20 -5 -25 -25 -25 -18 0 -25 5 -25 18 0 24 8
32 32 32 13 0 18 -7 18 -25z"/>
<path d="M2595 2958 c-30 -16 -45 -39 -45 -68 0 -43 21 -61 80 -68 40 -5 56
-12 58 -24 4 -23 -42 -35 -79 -21 -23 9 -31 8 -46 -9 -17 -19 -17 -20 2 -35
14 -10 38 -13 84 -11 52 3 67 8 82 27 43 53 10 121 -58 121 -48 0 -68 13 -59
35 5 15 14 17 51 12 38 -6 46 -4 55 13 8 15 6 21 -9 30 -25 13 -90 12 -116 -2z"/>
<path d="M2454 2883 l-20 -78 -30 72 c-28 69 -31 73 -61 73 -18 0 -33 -2 -33
-5 0 -2 20 -50 45 -106 25 -56 45 -110 45 -119 0 -32 -12 -50 -32 -50 -17 0
-19 -4 -13 -27 9 -36 8 -35 38 -28 39 10 51 31 87 150 18 61 39 129 46 153
l13 42 -33 0 c-32 0 -32 -1 -52 -77z"/>
<path d="M2170 2940 c-61 -10 -77 -31 -43 -55 12 -9 24 -9 45 -1 32 12 61 0
66 -28 3 -13 -5 -16 -43 -16 -54 0 -95 -32 -95 -75 0 -38 42 -75 84 -75 19 0
37 4 40 9 3 5 25 7 47 4 l42 -6 -7 94 c-10 133 -40 165 -136 149z m70 -160 c0
-12 -10 -25 -25 -32 -21 -9 -29 -9 -42 5 -22 22 -2 47 38 47 22 0 29 -5 29
-20z"/>
<path d="M4437 2860 c-3 -14 -3 -28 2 -33 12 -12 20 14 11 37 -6 18 -7 18 -13
-4z"/>
<path d="M4555 2860 c3 -5 8 -10 11 -10 2 0 4 5 4 10 0 6 -5 10 -11 10 -5 0
-7 -4 -4 -10z"/>
<path d="M4420 2811 c0 -5 5 -13 10 -16 6 -3 10 -2 10 4 0 5 -4 13 -10 16 -5
3 -10 2 -10 -4z"/>
<path d="M4512 2800 c0 -14 2 -19 5 -12 2 6 2 18 0 25 -3 6 -5 1 -5 -13z"/>
<path d="M4432 2750 c0 -14 2 -19 5 -12 2 6 2 18 0 25 -3 6 -5 1 -5 -13z"/>
<path d="M4406 2728 c-3 -13 -1 -27 4 -32 7 -7 10 1 10 22 0 37 -5 41 -14 10z"/>
<path d="M4456 2600 c3 -58 8 -107 10 -109 14 -14 14 20 0 111 l-15 103 5
-105z"/>
<path d="M4537 2509 c4 -13 8 -18 11 -10 2 7 -1 18 -6 23 -8 8 -9 4 -5 -13z"/>
<path d="M4452 2440 c0 -19 2 -27 5 -17 2 9 2 25 0 35 -3 9 -5 1 -5 -18z"/>
<path d="M4471 2434 c0 -11 3 -14 6 -6 3 7 2 16 -1 19 -3 4 -6 -2 -5 -13z"/>
<path d="M4577 2383 c-2 -5 0 -21 4 -38 7 -29 7 -29 8 8 1 35 -3 46 -12 30z"/>
<path d="M4473 2340 c0 -25 2 -35 4 -22 2 12 2 32 0 45 -2 12 -4 2 -4 -23z"/>
<path d="M3355 2330 c-55 -4 -149 -10 -210 -14 -60 -3 -261 -15 -445 -26 -184
-11 -497 -29 -695 -40 -456 -27 -480 -29 -478 -55 0 -11 4 -73 8 -137 l7 -117
56 4 c61 5 324 21 512 30 123 6 175 13 166 23 -3 3 2 14 11 24 15 17 15 22 -5
71 -25 59 -26 67 -11 67 5 0 17 -17 26 -37 l17 -38 10 38 c5 21 16 37 24 37 8
0 12 -6 9 -12 -2 -7 -12 -40 -22 -73 -9 -33 -22 -66 -27 -72 -15 -18 -53 -19
717 27 88 6 216 13 285 16 140 6 153 9 147 27 -2 6 3 17 12 24 14 10 13 17 -8
68 -13 31 -20 59 -16 63 8 8 35 -26 35 -45 0 -26 21 -12 27 17 3 17 12 30 19
30 17 0 18 5 -7 -76 -11 -38 -28 -75 -37 -81 -13 -11 -5 -13 49 -13 35 0 69 4
75 8 8 5 10 45 5 137 l-6 130 -75 1 c-41 1 -120 -2 -175 -6z m-515 -165 c0
-65 -3 -76 -21 -85 -23 -13 -65 -10 -62 5 2 6 12 11 23 11 31 2 33 8 31 79 -2
53 1 65 13 65 13 0 16 -14 16 -75z m568 49 c12 -8 22 -24 22 -35 0 -15 -7 -19
-35 -19 -25 0 -35 -4 -35 -16 0 -11 8 -15 30 -12 16 1 31 -2 32 -7 4 -15 -61
-18 -78 -4 -22 18 -18 75 8 93 12 9 25 16 28 16 3 0 16 -7 28 -16z m-114 -10
c20 -19 23 -108 4 -102 -7 3 -14 23 -16 46 -3 34 -7 42 -23 42 -16 0 -19 -7
-19 -45 0 -33 -4 -45 -15 -45 -11 0 -15 13 -15 54 0 49 2 55 23 59 40 8 45 7
61 -9z m-214 -16 c0 -13 3 -39 6 -59 6 -35 5 -37 -27 -42 -52 -7 -67 6 -71 63
-2 35 1 50 10 50 7 0 12 -13 12 -32 0 -42 13 -63 35 -54 12 4 16 16 15 43 -2
50 -2 53 10 53 6 0 10 -10 10 -22z m107 9 c-2 -7 -12 -12 -23 -12 -16 0 -20
-8 -22 -47 -5 -79 -32 -50 -32 33 0 36 1 37 41 37 27 1 39 -3 36 -11z m-247
-7 c23 -12 35 -62 20 -89 -12 -24 -58 -29 -78 -9 -19 19 -15 85 6 97 22 13 29
13 52 1z m-348 -69 l3 -59 -34 -4 c-47 -6 -71 19 -71 72 0 28 4 40 14 40 10 0
16 -14 18 -42 2 -35 7 -43 23 -43 17 0 20 6 18 35 -3 41 3 60 16 60 5 0 11
-27 13 -59z m108 54 c0 -3 -11 -10 -25 -15 -22 -8 -25 -16 -25 -55 0 -33 -4
-45 -15 -45 -12 0 -15 13 -15 60 l0 60 40 0 c22 0 40 -2 40 -5z m-970 -20 c-3
-5 -13 -9 -24 -7 -10 1 -25 -3 -32 -9 -19 -16 0 -39 31 -39 50 0 60 -65 13
-88 -19 -9 -33 -9 -53 -2 -35 13 -24 25 19 22 62 -6 53 43 -9 50 -24 2 -31 8
-33 31 -5 40 14 59 57 55 20 -2 34 -7 31 -13z m70 -9 c0 -20 4 -22 26 -18 16
3 30 -1 35 -9 11 -18 12 -99 1 -99 -5 0 -12 19 -18 43 -13 60 -38 57 -42 -5
-6 -91 -32 -47 -32 55 0 44 3 57 15 57 9 0 15 -9 15 -24z m658 12 c7 -7 12
-28 12 -48 0 -20 -5 -41 -12 -48 -28 -28 -88 0 -88 42 0 51 57 85 88 54z
m-370 -20 c-3 -7 -14 -14 -26 -16 -19 -3 -22 -10 -22 -48 0 -44 -12 -58 -24
-28 -3 9 -6 33 -6 54 0 32 4 39 23 43 44 8 59 7 55 -5z m106 -10 c22 -31 20
-38 -8 -38 -13 0 -32 -3 -40 -6 -26 -10 1 -35 30 -28 14 4 24 2 24 -5 0 -16
-45 -24 -68 -12 -28 15 -36 58 -17 87 20 31 59 31 79 2z m-220 -4 c10 -9 16
-33 16 -58 l0 -43 -41 1 c-27 1 -45 7 -52 18 -14 22 7 48 40 48 15 0 23 5 20
13 -2 6 -16 11 -31 10 -25 -2 -33 7 -19 20 12 13 51 7 67 -9z"/>
<path d="M3360 2185 c0 -8 9 -15 20 -15 11 0 20 7 20 15 0 8 -9 15 -20 15 -11
0 -20 -7 -20 -15z"/>
<path d="M2895 2160 c-12 -20 4 -62 23 -58 23 4 24 61 0 66 -9 2 -19 -2 -23
-8z"/>
<path d="M2413 2143 c-19 -7 -16 -62 3 -70 16 -6 34 11 34 33 0 18 -24 42 -37
37z"/>
<path d="M2137 2124 c-14 -14 -6 -24 19 -24 16 0 24 5 22 13 -5 14 -31 21 -41
11z"/>
<path d="M1920 2054 c0 -9 7 -14 17 -12 25 5 28 28 4 28 -12 0 -21 -6 -21 -16z"/>
<path d="M4552 2305 c0 -16 2 -22 5 -12 2 9 2 23 0 30 -3 6 -5 -1 -5 -18z"/>
<path d="M4491 2304 c0 -11 3 -14 6 -6 3 7 2 16 -1 19 -3 4 -6 -2 -5 -13z"/>
<path d="M4486 2143 c7 -123 10 -152 18 -160 3 -3 6 -18 6 -31 0 -14 3 -22 6
-19 4 3 1 55 -5 114 -7 59 -12 125 -13 146 -1 20 -5 37 -9 37 -4 0 -6 -39 -3
-87z"/>
<path d="M1294 2181 c-27 -12 -63 -57 -71 -89 -3 -13 0 -41 6 -62 20 -68 98
-104 165 -76 115 48 89 221 -35 232 -24 2 -54 0 -65 -5z m113 -65 c1 -1 -2
-19 -8 -39 -12 -43 -42 -67 -84 -67 -21 0 -26 3 -16 9 11 7 11 13 -3 32 -9 13
-16 31 -16 41 0 15 3 16 25 6 22 -10 28 -9 41 11 12 16 22 20 37 15 12 -3 23
-7 24 -8z"/>
<path d="M4472 2130 c0 -19 2 -27 5 -17 2 9 2 25 0 35 -3 9 -5 1 -5 -18z"/>
<path d="M4481 1954 c0 -11 3 -14 6 -6 3 7 2 16 -1 19 -3 4 -6 -2 -5 -13z"/>
<path d="M4513 1850 c0 -25 2 -35 4 -22 2 12 2 32 0 45 -2 12 -4 2 -4 -23z"/>
<path d="M4491 1769 c0 -19 4 -52 9 -74 7 -31 7 -24 3 30 -6 74 -13 101 -12
44z"/>
<path d="M4473 1710 c0 -30 2 -43 4 -27 2 15 2 39 0 55 -2 15 -4 2 -4 -28z"/>
<path d="M4491 1598 c0 -7 4 -22 9 -33 8 -18 9 -17 9 7 1 15 -3 30 -9 33 -5 3
-10 0 -9 -7z"/>
<path d="M4472 1580 c0 -14 4 -36 8 -50 l8 -25 0 25 c0 14 -4 36 -8 50 l-8 25
0 -25z"/>
<path d="M4612 1490 c0 -14 2 -19 5 -12 2 6 2 18 0 25 -3 6 -5 1 -5 -13z"/>
<path d="M4480 1476 c0 -8 4 -17 9 -20 5 -4 7 3 4 14 -6 23 -13 26 -13 6z"/>
<path d="M4514 1412 c1 -48 4 -66 9 -53 5 10 5 42 -1 72 l-10 54 2 -73z"/>
<path d="M4552 1330 c0 -14 2 -19 5 -12 2 6 2 18 0 25 -3 6 -5 1 -5 -13z"/>
<path d="M4651 1204 c0 -11 3 -14 6 -6 3 7 2 16 -1 19 -3 4 -6 -2 -5 -13z"/>
<path d="M4533 1135 c0 -38 2 -53 4 -32 2 20 2 52 0 70 -2 17 -4 1 -4 -38z"/>
<path d="M4184 1058 c3 -13 6 -38 6 -55 0 -18 5 -33 10 -33 6 0 10 7 10 16 0
14 1 14 16 0 20 -21 38 -20 55 1 13 15 12 16 -8 11 -13 -4 -26 -2 -29 3 -3 5
7 9 21 9 20 0 26 4 23 18 -4 21 -44 28 -64 12 -12 -10 -14 -8 -14 14 0 17 -5
26 -16 26 -12 0 -15 -6 -10 -22z"/>
<path d="M3862 1058 c-51 -25 -30 -108 27 -108 16 0 34 7 41 15 10 12 15 12
34 0 19 -13 25 -13 42 -1 13 10 24 11 37 5 20 -11 57 -3 57 13 0 7 4 7 13 0 6
-5 21 -12 32 -15 15 -4 13 -5 -7 -6 -33 -1 -37 -17 -8 -26 33 -11 50 12 50 66
0 49 0 49 -31 45 -17 -2 -35 -9 -39 -16 -5 -9 -9 -9 -14 -1 -9 14 -49 14 -64
-1 -8 -8 -15 -8 -27 2 -12 10 -21 10 -41 1 -14 -6 -36 -11 -49 -11 -16 0 -25
-6 -25 -15 0 -8 8 -15 18 -15 14 0 15 -2 2 -10 -20 -13 -26 -12 -44 6 -23 23
-3 58 30 51 31 -6 41 9 15 22 -23 13 -20 13 -49 -1z m213 -56 c0 -18 -20 -15
-23 4 -3 10 1 15 10 12 7 -3 13 -10 13 -16z m83 6 c-6 -18 -28 -21 -28 -4 0 9
7 16 16 16 9 0 14 -5 12 -12z m-158 -13 c0 -8 -7 -15 -15 -15 -8 0 -15 7 -15
15 0 8 7 15 15 15 8 0 15 -7 15 -15z"/>
<path d="M4536 1038 c-3 -13 -1 -27 4 -32 7 -7 10 1 10 22 0 37 -5 41 -14 10z"/>
<path d="M3660 1040 c0 -5 5 -10 10 -10 6 0 10 5 10 10 0 6 -4 10 -10 10 -5 0
-10 -4 -10 -10z"/>
<path d="M3730 1035 c0 -8 -4 -15 -10 -15 -5 0 -10 5 -10 10 0 6 -4 10 -10 10
-5 0 -10 -7 -10 -15 0 -9 -6 -15 -12 -14 -28 3 -38 -2 -38 -18 -1 -17 -1 -17
-14 0 -18 23 -34 21 -39 -5 l-4 -23 -8 23 c-4 12 -11 22 -16 22 -12 0 -11 -5
7 -48 l15 -37 14 25 c12 22 14 23 20 8 11 -27 33 -21 38 10 l4 27 2 -27 c2
-38 21 -35 21 3 0 17 4 28 10 24 6 -3 10 -15 10 -25 0 -21 17 -36 28 -25 4 4
1 10 -5 12 -15 5 -18 43 -4 43 5 0 12 -15 16 -32 l8 -33 6 34 c8 45 29 52 37
12 4 -17 11 -31 16 -31 12 0 -1 63 -15 72 -6 3 -16 4 -24 1 -7 -3 -13 2 -13
11 0 9 -4 16 -10 16 -5 0 -10 -7 -10 -15z"/>
<path d="M3215 1016 c-25 -18 -24 -72 1 -91 25 -19 44 -19 72 1 12 8 22 10 22
5 0 -6 5 -11 10 -11 6 0 10 14 10 30 0 17 5 30 10 30 6 0 10 -11 10 -24 0 -21
16 -36 40 -36 5 0 16 7 25 17 13 13 18 14 25 3 10 -16 30 -4 31 18 0 13 3 12
11 -5 6 -13 14 -23 19 -23 7 0 29 54 29 71 0 18 -18 8 -24 -13 l-7 -23 -9 23
c-10 24 -30 22 -30 -4 0 -8 -4 -14 -10 -14 -5 0 -10 6 -10 14 0 12 -12 14 -57
11 -83 -6 -133 -16 -133 -26 0 -5 10 -9 21 -9 18 0 19 -2 9 -15 -19 -23 -49
-18 -62 10 -13 30 4 57 36 54 34 -2 42 1 26 11 -21 14 -43 12 -65 -4z m195
-58 c0 -15 -32 -21 -40 -7 -13 20 9 43 26 28 8 -6 14 -16 14 -21z"/>
<path d="M2370 1000 c0 -5 -11 -10 -25 -10 -18 0 -25 -5 -25 -20 0 -11 -6 -29
-12 -41 -11 -17 -10 -22 5 -30 12 -7 16 -17 12 -30 -5 -15 -1 -19 18 -19 14 0
30 -7 37 -15 11 -13 15 -14 29 -1 9 8 25 16 36 18 12 2 20 11 20 24 0 11 6 28
13 36 10 13 9 18 -3 28 -8 7 -15 21 -15 31 0 13 -7 19 -24 19 -14 0 -28 5 -31
10 -3 6 -13 10 -21 10 -8 0 -14 -4 -14 -10z m56 -28 c57 -38 8 -142 -52 -109
-43 24 -54 56 -31 91 15 22 62 32 83 18z"/>
<path d="M2840 968 c0 -30 -1 -31 -14 -12 -12 15 -18 17 -33 8 -10 -6 -21 -22
-24 -35 -5 -18 -7 -14 -8 19 -1 23 -5 42 -11 42 -5 0 -10 -7 -10 -15 0 -8 -9
-15 -19 -15 -11 0 -21 -6 -24 -12 -3 -10 -7 -10 -20 0 -26 22 -57 6 -58 -31
l-1 -32 -17 38 c-28 59 -38 65 -51 31 -6 -16 -14 -42 -16 -59 -5 -27 -4 -28 9
-12 16 19 42 23 52 7 3 -5 15 -10 26 -10 14 0 19 7 19 30 0 20 5 30 15 30 10
0 15 -10 15 -30 0 -16 5 -30 10 -30 6 0 10 7 10 16 0 14 2 14 16 -1 10 -10 23
-13 33 -9 9 4 31 7 49 6 46 -3 65 11 27 19 -29 6 -29 7 -4 8 15 0 31 -5 38
-12 9 -12 87 -14 99 -3 2 3 1 18 -3 34 -6 29 -27 43 -52 35 -23 -8 -14 -25 10
-19 l22 6 -22 -11 c-13 -7 -23 -18 -23 -26 0 -8 -4 -11 -10 -8 -5 3 -10 24
-10 46 0 21 -4 39 -10 39 -5 0 -10 -14 -10 -32z m-100 -49 c0 -20 -15 -26 -25
-9 -9 15 3 43 15 35 5 -3 10 -15 10 -26z m80 21 c0 -5 -7 -10 -15 -10 -8 0
-15 5 -15 10 0 6 7 10 15 10 8 0 15 -4 15 -10z m-245 -10 c3 -5 1 -10 -4 -10
-6 0 -11 5 -11 10 0 6 2 10 4 10 3 0 8 -4 11 -10z m350 -10 c-3 -5 -10 -10
-16 -10 -5 0 -9 5 -9 10 0 6 7 10 16 10 8 0 12 -4 9 -10z"/>
<path d="M4546 929 c-3 -17 -6 -58 -6 -90 0 -54 -2 -59 -22 -59 -19 0 -20 -2
-8 -10 8 -5 25 -10 38 -10 20 0 22 4 22 61 0 42 -3 58 -11 53 -9 -5 -10 6 -5
40 8 52 2 63 -8 15z"/>
<path d="M994 896 c-28 -28 -34 -42 -34 -76 0 -34 6 -48 34 -76 28 -28 42 -34
76 -34 34 0 48 6 76 34 28 28 34 42 34 76 0 34 -6 48 -34 76 -28 28 -42 34
-76 34 -34 0 -48 -6 -76 -34z m104 -50 l44 -22 -40 -26 c-55 -37 -82 -29 -82
24 0 23 4 37 10 33 6 -3 10 -1 10 4 0 15 9 13 58 -13z"/>
<path d="M1050 851 c0 -6 9 -13 20 -16 11 -3 20 -11 20 -16 0 -13 -18 -11 -23
4 -2 7 -8 8 -13 3 -5 -5 -4 -11 4 -13 10 -4 10 -8 0 -21 -11 -13 -11 -14 7 -4
11 6 28 17 38 24 17 13 16 15 -17 31 -20 9 -36 13 -36 8z"/>
<path d="M1032 820 c0 -14 2 -19 5 -12 2 6 2 18 0 25 -3 6 -5 1 -5 -13z"/>
<path d="M1955 900 c-3 -5 -1 -10 4 -10 6 0 11 -9 11 -20 0 -11 5 -20 10 -20
6 0 10 6 10 14 0 8 3 21 6 30 4 11 0 16 -14 16 -12 0 -24 -4 -27 -10z"/>
<path d="M1801 886 c-16 -19 4 -58 27 -54 24 5 28 38 5 38 -15 0 -16 -2 -3
-10 13 -8 12 -10 -2 -10 -10 0 -18 7 -18 15 0 8 7 15 15 15 8 0 15 5 15 10 0
15 -26 12 -39 -4z"/>
<path d="M1880 870 c1 -31 2 -33 12 -16 11 19 11 19 24 1 13 -17 14 -16 14 13
0 32 -14 43 -23 20 -4 -10 -8 -9 -16 2 -8 12 -11 7 -11 -20z"/>
<path d="M1684 878 c-4 -6 1 -17 10 -24 16 -12 16 -13 -1 -17 -12 -3 -9 -5 10
-6 31 -1 35 15 10 36 -10 8 -12 12 -5 8 6 -3 12 -1 12 4 0 15 -27 14 -36 -1z"/>
<path d="M1750 866 c0 -14 5 -28 10 -31 6 -4 10 7 10 24 0 17 -4 31 -10 31 -5
0 -10 -11 -10 -24z"/>
<path d="M1456 872 c-3 -5 -1 -22 4 -38 4 -16 9 -23 9 -16 1 8 8 11 19 8 13
-5 18 0 19 16 3 30 -37 53 -51 30z"/>
<path d="M1542 851 c-9 -27 -9 -28 19 -27 32 1 36 11 15 39 -18 23 -22 22 -34
-12z"/>
<path d="M1616 853 c9 -36 10 -37 31 -28 17 8 17 8 1 12 -10 3 -18 13 -18 24
0 10 -5 19 -10 19 -6 0 -8 -11 -4 -27z"/>
<path d="M1311 843 c-1 -28 3 -33 22 -33 12 0 17 4 12 8 -6 4 -16 18 -22 32
-12 25 -12 25 -12 -7z"/>
<path d="M1374 854 c3 -9 6 -22 6 -31 0 -9 8 -13 23 -11 16 2 23 11 25 31 2
15 -1 27 -6 27 -5 0 -8 -8 -8 -17 1 -25 -18 -28 -22 -3 -2 11 -8 20 -14 20 -5
0 -7 -7 -4 -16z"/>
<path d="M1240 828 c0 -18 4 -28 8 -22 4 6 15 14 25 17 24 9 17 31 -11 35 -19
3 -22 -1 -22 -30z m30 12 c0 -5 -2 -10 -4 -10 -3 0 -8 5 -11 10 -3 6 -1 10 4
10 6 0 11 -4 11 -10z"/>
<path d="M4410 790 c-34 -7 -34 -7 -5 -8 17 -1 48 3 70 7 l40 9 -35 0 c-19 -1
-51 -4 -70 -8z"/>
<path d="M4651 774 c0 -11 3 -14 6 -6 3 7 2 16 -1 19 -3 4 -6 -2 -5 -13z"/>
<path d="M4400 760 l-45 -7 51 -1 c28 -1 73 -4 100 -7 l49 -6 -40 15 c-43 17
-45 17 -115 6z"/>
<path d="M3709 756 c-3 -3 -65 -8 -139 -11 -80 -3 -151 -12 -175 -20 l-40 -15
47 6 c25 3 103 9 172 12 l125 7 6 -65 c3 -36 8 -81 11 -100 l6 -35 19 24 c10
13 19 20 19 16 0 -3 13 3 29 14 15 11 31 18 33 15 3 -3 8 2 11 11 5 11 -6 9
-44 -11 -28 -14 -52 -24 -53 -22 -9 11 -26 147 -20 161 6 16 3 22 -7 13z"/>
<path d="M4664 726 c-3 -14 -4 -31 -1 -38 3 -7 6 0 6 15 1 16 5 26 11 22 6 -3
10 -2 10 4 0 22 -20 20 -26 -3z"/>
<path d="M3163 723 c-40 -2 -73 -8 -73 -13 0 -11 189 -2 210 11 15 9 12 9
-137 2z"/>
<path d="M3965 720 c-3 -5 -2 -10 4 -10 5 0 13 5 16 10 3 6 2 10 -4 10 -5 0
-13 -4 -16 -10z"/>
<path d="M3328 713 c7 -3 16 -2 19 1 4 3 -2 6 -13 5 -11 0 -14 -3 -6 -6z"/>
<path d="M4215 712 c-30 -5 -30 -5 -5 -12 16 -4 -1 -7 -47 -8 -43 0 -84 -7
-101 -16 -16 -8 -33 -12 -37 -8 -5 4 -5 1 -1 -5 7 -12 -5 -18 -27 -14 -5 1 -6
-3 -2 -9 4 -7 19 -3 43 11 27 16 60 24 120 28 45 3 82 11 82 16 -1 6 9 13 22
17 19 5 19 6 3 6 -11 -1 -33 -3 -50 -6z"/>
<path d="M2958 701 c-31 -5 -36 -9 -27 -21 8 -11 12 -12 16 -2 2 6 20 12 38
12 19 0 37 5 40 10 7 11 -7 11 -67 1z"/>
<path d="M3408 693 c6 -2 18 -2 25 0 6 3 1 5 -13 5 -14 0 -19 -2 -12 -5z"/>
<path d="M4548 693 c7 -3 16 -2 19 1 4 3 -2 6 -13 5 -11 0 -14 -3 -6 -6z"/>
<path d="M2638 683 c7 -3 16 -2 19 1 4 3 -2 6 -13 5 -11 0 -14 -3 -6 -6z"/>
<path d="M2860 675 c0 -8 7 -15 15 -15 8 0 15 4 15 9 0 5 -7 11 -15 15 -9 3
-15 0 -15 -9z"/>
<path d="M4618 673 c6 -2 18 -2 25 0 6 3 1 5 -13 5 -14 0 -19 -2 -12 -5z"/>
<path d="M2603 663 c9 -2 25 -2 35 0 9 3 1 5 -18 5 -19 0 -27 -2 -17 -5z"/>
<path d="M4328 653 c6 -2 18 -2 25 0 6 3 1 5 -13 5 -14 0 -19 -2 -12 -5z"/>
<path d="M4200 640 c-13 -8 -12 -10 3 -10 9 0 17 5 17 10 0 12 -1 12 -20 0z"/>
<path d="M1363 623 c9 -2 25 -2 35 0 9 3 1 5 -18 5 -19 0 -27 -2 -17 -5z"/>
<path d="M3290 600 c-20 -6 -21 -8 -5 -8 11 0 29 3 40 8 25 11 -1 11 -35 0z"/>
<path d="M3448 603 c6 -2 18 -2 25 0 6 3 1 5 -13 5 -14 0 -19 -2 -12 -5z"/>
<path d="M3939 593 c-13 -16 -12 -17 4 -4 16 13 21 21 13 21 -2 0 -10 -8 -17
-17z"/>
<path d="M938 593 c6 -2 18 -2 25 0 6 3 1 5 -13 5 -14 0 -19 -2 -12 -5z"/>
<path d="M2543 583 c9 -2 23 -2 30 0 6 3 -1 5 -18 5 -16 0 -22 -2 -12 -5z"/>
<path d="M977 569 c8 -8 16 -8 30 0 16 9 14 10 -11 11 -22 0 -27 -3 -19 -11z"/>
<path d="M1043 573 c9 -2 25 -2 35 0 9 3 1 5 -18 5 -19 0 -27 -2 -17 -5z"/>
<path d="M2628 572 c-9 -2 -19 -10 -22 -18 -4 -10 2 -14 22 -13 24 0 25 1 7 9
-16 7 -12 9 20 10 22 1 49 5 60 9 14 6 7 8 -25 7 -25 0 -52 -2 -62 -4z"/>
<path d="M2823 573 c15 -2 37 -2 50 0 12 2 0 4 -28 4 -27 0 -38 -2 -22 -4z"/>
<path d="M3894 564 c-18 -14 -18 -15 4 -4 12 6 22 13 22 15 0 8 -5 6 -26 -11z"/>
<path d="M2500 559 c-19 -5 -14 -7 23 -8 26 -1 47 1 47 3 0 8 -46 12 -70 5z"/>
<path d="M2948 563 c7 -3 16 -2 19 1 4 3 -2 6 -13 5 -11 0 -14 -3 -6 -6z"/>
<path d="M3795 561 c3 -2 -1 -11 -8 -19 -10 -13 -9 -14 10 -4 30 16 35 28 13
28 -11 0 -17 -2 -15 -5z"/>
<path d="M2815 550 c-7 -12 12 -12 40 0 18 8 17 9 -7 9 -15 1 -30 -3 -33 -9z"/>
<path d="M2503 533 c9 -2 25 -2 35 0 9 3 1 5 -18 5 -19 0 -27 -2 -17 -5z"/>
<path d="M3611 524 c0 -11 3 -14 6 -6 3 7 2 16 -1 19 -3 4 -6 -2 -5 -13z"/>
<path d="M3593 485 c0 -22 2 -30 4 -17 2 12 2 30 0 40 -3 9 -5 -1 -4 -23z"/>
<path d="M3621 424 c0 -11 3 -14 6 -6 3 7 2 16 -1 19 -3 4 -6 -2 -5 -13z"/>
<path d="M3597 358 c3 -24 7 -45 9 -47 2 -2 29 13 59 34 31 21 54 40 51 42 -2
2 -26 -12 -53 -33 l-48 -37 -3 42 c-2 22 -7 41 -12 41 -4 0 -6 -19 -3 -42z"/>
</g>
</svg>
